<svg width="512" height="512" fill="none" xmlns="http://www.w3.org/2000/svg"><path d="M202.212 363.988l45.996-45.997c4.303-4.303 11.281-4.303 15.584 0l45.996 45.997c4.303 4.303 4.303 11.28 0 15.583l-45.996 45.996c-4.303 4.304-11.281 4.304-15.584 0l-45.996-45.996c-4.303-4.303-4.303-11.28 0-15.583zm101.191-101.192l128.79-128.789c4.303-4.303 11.28-4.303 15.583 0l45.997 45.996c4.303 4.303 4.303 11.28 0 15.584l-128.79 128.789c-4.303 4.303-11.28 4.303-15.583 0l-45.997-45.996c-4.303-4.303-4.303-11.281 0-15.584zM18.228 180.003l45.996-45.996c4.303-4.303 11.28-4.303 15.583 0l128.789 128.789c4.304 4.303 4.304 11.28 0 15.584L162.6 324.376c-4.303 4.303-11.28 4.303-15.583 0L18.227 195.587c-4.303-4.304-4.303-11.281 0-15.584zm229.98 43.181L127.04 102.016c-6.942-6.942-2.025-18.811 7.792-18.811h242.336c9.817 0 14.734 11.87 7.792 18.811L263.792 223.184c-4.303 4.304-11.281 4.304-15.584 0z" stroke="#F55C3D" stroke-width="30"/></svg>